<svg width="45" height="40" viewBox="0 0 45 40" fill="none" xmlns="http://www.w3.org/2000/svg">
<path d="M37.9257 11.0254C35.8711 11.4749 34.0079 12.37 32.5379 13.6137C30.8248 8.75404 27.137 1.40116 23.5408 0.196807C23.1607 0.054101 22.7437 -0.0127138 22.3249 0.00199437C21.9062 0.0167026 21.4979 0.112503 21.1346 0.281321C18.8853 1.33777 17.4207 4.73953 18.7022 11.1839C13.759 3.87325 12.0328 3.88381 11.2351 3.87325C10.8519 3.87758 10.4788 3.97309 10.1625 4.14785C9.84614 4.3226 9.60061 4.56884 9.45662 4.85574C8.92045 5.81712 7.84812 8.81743 10.4636 15.2723C7.31195 11.7861 6.34424 11.3423 5.23268 11.3846C4.87698 11.4015 4.53358 11.4959 4.23889 11.6577C3.9442 11.8195 3.7092 12.0428 3.5588 12.3037C2.61724 13.7405 2.72185 17.3535 5.65116 22.7414C4.64785 22.0262 3.37748 21.6023 2.04184 21.5371C1.68214 21.5574 1.3345 21.6503 1.03067 21.8072C0.726839 21.964 0.476514 22.1799 0.30257 22.4351C-0.887463 24.1993 1.61029 29.1541 4.69652 32.5136C7.19427 35.2709 12.2028 39.5073 19.4738 39.5073C20.4918 39.506 21.5075 39.4282 22.5077 39.2748C22.8555 39.2251 23.1647 39.0658 23.3672 38.8319C23.5697 38.5981 23.649 38.3089 23.5877 38.0278C23.5263 37.7468 23.3293 37.4969 23.04 37.3331C22.7507 37.1694 22.3927 37.1052 22.0447 37.1545C22.029 37.1568 22.0133 37.1593 21.9977 37.162C15.956 38.1128 11.4051 35.4294 8.64583 33.0207C4.5265 29.4182 2.72185 25.0867 2.61723 23.7662C3.48033 24.0514 5.96501 25.2346 10.8036 30.2422C11.0082 30.4734 11.3181 30.6294 11.6651 30.6759C12.0122 30.7225 12.3679 30.6558 12.654 30.4905C12.9401 30.3252 13.1333 30.0748 13.1909 29.7945C13.2485 29.5141 13.166 29.2268 12.9613 28.9956C6.16117 20.6602 5.49422 15.6104 5.71654 13.9095C7.71735 15.5576 12.7129 21.6005 16.4791 26.1643C16.6684 26.3956 16.9611 26.5588 17.2959 26.6197C17.6307 26.6807 17.9817 26.6348 18.2755 26.4915C18.5694 26.3483 18.7833 26.1188 18.8726 25.8511C18.9618 25.5834 18.9195 25.2982 18.7545 25.0551C10.9082 13.4341 11.1828 8.15187 11.6405 6.37704C12.8175 7.33841 15.9429 10.6873 22.5208 22.2238C22.6675 22.4731 22.9273 22.6673 23.2463 22.7663C23.5653 22.8653 23.9192 22.8616 24.2348 22.7558C24.5505 22.65 24.8038 22.4502 24.9423 22.1979C25.0809 21.9455 25.0941 21.6598 24.9793 21.3997C18.5976 7.40179 21.37 2.65833 22.4292 2.11954C23.8023 2.11954 27.6601 7.46518 30.0663 14.4694C30.2102 14.9026 30.354 15.3252 30.4848 15.7372C30.1472 16.2164 29.8837 16.7273 29.7001 17.2585C28.3924 21.1356 27.0847 29.9358 29.6086 32.3551C29.8597 32.6085 30.1846 32.8077 30.5543 32.9349C30.924 33.0621 31.3269 33.1134 31.7271 33.0841C32.2338 33.0396 32.722 32.9046 33.1562 32.689C33.5904 32.4734 33.9599 32.1826 34.238 31.8375C36.5788 29.0801 35.2057 22.1604 33.3356 16.1069C34.6095 14.6513 36.4516 13.5836 38.5665 13.0749C39.0184 12.9602 39.5005 12.9467 39.9611 13.036C40.4217 13.1254 40.8437 13.3141 41.182 13.582C42.2543 14.5539 44.1243 18.1881 38.4488 31.0028C38.3904 31.136 38.3651 31.2772 38.3742 31.4183C38.3834 31.5594 38.4268 31.6977 38.5021 31.8252C38.6542 32.0828 38.9267 32.281 39.2596 32.3762C39.5926 32.4715 39.9587 32.456 40.2775 32.3332C40.5964 32.2103 40.8417 31.9902 40.9596 31.7212C45.4844 21.5054 46.1905 14.9237 43.1697 12.1558C42.5124 11.5919 41.6733 11.1873 40.7469 10.9876C39.8205 10.7879 38.8434 10.801 37.9257 11.0254ZM32.041 30.6437C31.9432 30.7856 31.7853 30.8944 31.5964 30.95C30.6156 30.0098 30.6156 24.4423 31.6879 19.8785C33.7149 27.7701 32.5379 30.0837 32.041 30.6437V30.6437Z" fill="url(#paint0_linear_189_276)"/>
<defs>
<linearGradient id="paint0_linear_189_276" x1="50.9513" y1="19.8811" x2="107.46" y2="19.6868" gradientUnits="userSpaceOnUse">
<stop stop-color="white"/>
<stop offset="0.99" stop-color="#6C139C"/>
</linearGradient>
</defs>
</svg>
